<svg width="48" height="48" viewBox="0 0 48 48" fill="none" xmlns="http://www.w3.org/2000/svg">
<path fill-rule="evenodd" clip-rule="evenodd" d="M37 6V13H38C41.3137 13 44 15.6863 44 19V31C44 34.3137 41.3137 37 38 37H37V42C37 43.1046 36.1046 44 35 44H13C11.8954 44 11 43.1046 11 42V37H10C6.68629 37 4 34.3137 4 31V19C4 15.6863 6.68629 13 10 13H11V6C11 4.89543 11.8954 4 13 4H35C36.1046 4 37 4.89543 37 6ZM15 13V8H33V13H15ZM11 33V28C11 26.8954 11.8954 26 13 26H35C36.1046 26 37 26.8954 37 28V33H38C39.1046 33 40 32.1046 40 31V19C40 17.8954 39.1046 17 38 17H10C8.89543 17 8 17.8954 8 19V31C8 32.1046 8.89543 33 10 33H11ZM33 30H15V40H33V30Z" fill="#212121"/>
</svg>
