<svg width="48" height="48" viewBox="0 0 48 48" fill="none" xmlns="http://www.w3.org/2000/svg">
<path d="M28.9628 24.0385L31.8282 26.8295L24 34.8664L16.1718 26.8295L19.0372 24.0385L22 27.0803V18H26V27.0803L28.9628 24.0385Z" fill="#212121"/>
<path fill-rule="evenodd" clip-rule="evenodd" d="M40 11H30L27.201 7.50122C26.4419 6.55236 25.2926 6 24.0775 6H8C5.79086 6 4 7.79086 4 10V38C4 40.2091 5.79086 42 8 42H40C42.2091 42 44 40.2091 44 38V15C44 12.7909 42.2091 11 40 11ZM28.0775 15L24.0775 10H8V38H40V15H28.0775Z" fill="#212121"/>
</svg>
